<?xml version="1.0" standalone="no"?>
<!DOCTYPE svg PUBLIC "-//W3C//DTD SVG 20010904//EN"
 "http://www.w3.org/TR/2001/REC-SVG-20010904/DTD/svg10.dtd">
<svg version="1.0" xmlns="http://www.w3.org/2000/svg"
 width="512.000000pt" height="512.000000pt" viewBox="0 0 512.000000 512.000000"
 preserveAspectRatio="xMidYMid meet">
<metadata>
Created by potrace 1.15, written by Peter Selinger 2001-2017
</metadata>
<g transform="translate(0.000000,512.000000) scale(0.100000,-0.100000)"
fill="#000000" stroke="none">
<path d="M4080 4659 c-30 -5 -66 -7 -80 -5 -14 1 -19 1 -11 -1 7 -3 -18 -16
-55 -29 -77 -27 -86 -29 -64 -13 13 9 13 10 0 6 -8 -2 -14 -9 -13 -15 3 -14
-34 -35 -46 -28 -11 7 -101 -88 -101 -106 0 -7 8 1 19 17 10 17 34 44 52 60
27 24 25 20 -8 -17 -57 -63 -61 -84 -28 -148 14 -29 24 -59 21 -67 -4 -9 -2
-11 6 -7 8 5 9 2 5 -10 -5 -11 -3 -15 5 -10 8 5 9 2 5 -9 -3 -9 -2 -16 2 -14
5 1 21 -16 35 -38 l26 -40 -31 35 c-17 19 -26 26 -21 14 30 -58 85 -60 195 -9
130 62 264 65 384 10 51 -23 153 -108 153 -128 0 -5 -18 10 -41 34 l-41 44 38
-47 c21 -26 41 -45 45 -42 12 7 57 -88 75 -158 27 -105 -4 -255 -81 -395 -46
-82 -184 -223 -267 -271 -265 -156 -577 -125 -893 87 -49 33 -90 65 -90 70 0
5 -4 13 -9 18 -5 5 -6 2 -1 -6 5 -9 3 -12 -6 -9 -8 3 -14 10 -14 16 0 5 -4 14
-9 19 -5 5 -6 3 -2 -4 11 -19 4 -16 -70 29 -431 262 -969 342 -1498 222 -207
-46 -484 -149 -562 -209 -36 -27 -49 -32 -38 -12 4 6 -3 3 -16 -8 -29 -25 -80
-104 -80 -124 0 -8 11 8 25 36 14 28 35 59 47 69 13 12 7 -2 -15 -34 -62 -91
-62 -162 -2 -290 22 -47 34 -85 30 -93 -6 -8 -4 -10 5 -4 10 6 12 4 7 -9 -5
-11 -3 -15 5 -10 8 5 9 2 5 -10 -5 -11 -3 -15 5 -10 8 5 9 2 5 -10 -4 -9 -3
-15 2 -11 5 3 36 -46 68 -107 33 -62 87 -159 122 -216 34 -56 59 -106 57 -111
-3 -5 2 -15 12 -22 16 -13 16 -12 2 6 -15 20 -14 20 8 1 23 -20 31 -42 10 -30
-7 4 1 -8 17 -26 32 -34 112 -90 129 -90 6 0 -11 13 -39 29 -27 16 -61 41 -75
57 -21 23 -17 22 20 -8 68 -54 108 -71 180 -76 154 -10 368 95 561 276 l83 77
-61 -81 c-218 -287 -464 -423 -671 -370 -87 22 -138 50 -197 110 -58 58 -150
209 -139 227 4 8 3 9 -5 5 -8 -5 -39 48 -97 168 -46 97 -87 176 -91 176 -19 0
-204 -96 -259 -135 -68 -47 -80 -53 -67 -32 15 24 -73 -52 -138 -119 -63 -66
-149 -176 -171 -219 -16 -31 4 -7 57 70 54 76 171 204 219 238 17 12 -10 -19
-60 -68 -102 -100 -166 -184 -226 -293 -23 -42 -44 -69 -50 -65 -7 3 -8 1 -4
-6 4 -6 -11 -55 -34 -109 -80 -186 -145 -458 -171 -717 -17 -169 -14 -528 6
-730 9 -93 20 -173 24 -178 4 -4 141 -6 305 -5 l298 3 28 95 c32 105 101 249
133 277 21 18 21 18 7 -2 -8 -11 8 1 36 27 27 26 69 58 94 72 49 28 48 36 -2
10 -16 -9 -50 -34 -74 -56 -24 -22 -44 -35 -44 -29 0 16 114 97 156 111 47 16
139 9 186 -14 116 -56 207 -206 247 -406 l17 -85 230 -3 231 -2 42 117 c67
185 114 267 200 354 100 100 164 131 282 137 204 10 423 -104 669 -348 128
-127 249 -260 238 -260 -10 0 -25 16 -132 139 -83 96 -222 226 -291 274 -41
28 -16 4 89 -83 81 -68 182 -173 277 -288 l35 -44 304 2 c168 0 308 4 311 8 4
4 0 48 -8 97 -21 128 -21 397 0 511 27 152 107 381 128 368 5 -3 6 2 3 10 -7
20 14 58 28 50 7 -4 8 -2 4 5 -10 16 52 119 181 298 205 285 256 359 316 460
33 56 64 100 70 96 6 -3 7 -1 4 5 -4 5 34 93 83 193 147 299 229 537 260 754
14 104 12 311 -5 408 -24 140 -102 328 -181 440 -36 50 -41 63 -21 51 6 -5 -3
10 -21 32 -38 44 -137 130 -167 145 l-20 10 20 -16 c68 -53 124 -104 150 -135
16 -19 -7 -1 -52 41 -95 89 -213 155 -344 193 -58 16 -76 25 -59 27 14 2 -29
5 -95 5 -66 1 -145 -2 -175 -7z m-825 -1858 c113 -36 117 -38 105 -61 -6 -11
-15 -18 -20 -15 -5 3 -12 0 -16 -6 -5 -8 -3 -9 6 -4 10 6 12 4 6 -11 -31 -76
-24 -123 27 -181 18 -20 25 -33 17 -28 -13 8 -13 7 -1 -8 15 -18 26 -23 16 -7
-8 13 -3 13 36 -5 23 -9 28 -14 15 -15 -11 0 -17 -2 -14 -5 3 -3 34 1 69 10
35 9 72 17 82 18 24 2 87 71 87 95 -1 10 -6 6 -14 -13 -7 -16 -26 -41 -42 -55
l-29 -25 27 30 c32 36 48 75 48 119 l0 33 75 -26 c49 -17 75 -31 75 -41 0 -29
-76 -115 -130 -148 -70 -41 -109 -52 -192 -52 -128 0 -241 63 -292 163 -25 49
-30 70 -30 140 -1 81 6 117 21 117 4 0 35 -9 68 -19z"/>
</g>
</svg>
