<svg id="svg" version="1.1" xmlns="http://www.w3.org/2000/svg" xmlns:xlink="http://www.w3.org/1999/xlink" width="400" height="417.10794297352345" viewBox="0, 0, 400,417.10794297352345"><g id="svgg"><path id="path0" d="M78.239 0.306 C 78.480 0.468,79.718 2.400,80.990 4.600 C 83.821 9.496,84.163 10.085,86.800 14.600 C 87.956 16.580,89.240 18.785,89.651 19.500 C 90.063 20.215,90.737 21.385,91.149 22.100 C 91.560 22.815,92.794 24.930,93.890 26.800 C 96.712 31.615,104.015 44.131,107.310 49.800 C 110.707 55.645,110.961 56.082,113.600 60.600 C 114.756 62.580,116.014 64.740,116.394 65.400 C 116.775 66.060,119.926 71.460,123.398 77.400 C 126.870 83.340,130.046 88.785,130.455 89.500 C 131.956 92.119,132.741 93.474,134.800 97.000 C 135.956 98.980,137.214 101.140,137.594 101.800 C 137.975 102.460,141.126 107.860,144.598 113.800 C 148.070 119.740,151.223 125.140,151.604 125.800 C 151.985 126.460,153.244 128.620,154.400 130.600 C 156.668 134.482,157.728 136.317,158.791 138.200 L 159.469 139.400 239.234 139.488 C 311.507 139.567,319.075 139.516,319.800 138.942 C 320.354 138.503,320.446 138.251,320.100 138.121 C 319.825 138.018,319.600 137.603,319.600 137.200 C 319.600 136.797,319.465 136.407,319.300 136.333 C 318.924 136.166,317.625 134.036,317.329 133.100 C 317.207 132.715,316.948 132.400,316.753 132.400 C 316.559 132.400,316.400 132.040,316.400 131.600 C 316.400 131.160,316.220 130.800,316.000 130.800 C 315.780 130.800,315.600 130.530,315.600 130.200 C 315.600 129.870,315.420 129.600,315.200 129.600 C 314.980 129.600,314.800 129.330,314.800 129.000 C 314.800 128.670,314.620 128.400,314.400 128.400 C 314.180 128.400,314.000 128.040,314.000 127.600 C 314.000 127.160,313.820 126.800,313.600 126.800 C 313.380 126.800,313.200 126.522,313.200 126.183 C 313.200 125.844,312.840 125.180,312.400 124.708 C 311.960 124.236,311.600 123.523,311.600 123.125 C 311.600 122.726,311.420 122.400,311.200 122.400 C 310.980 122.400,310.800 122.130,310.800 121.800 C 310.800 121.470,310.620 121.200,310.400 121.200 C 310.180 121.200,310.000 120.930,310.000 120.600 C 310.000 120.270,309.820 120.000,309.600 120.000 C 309.380 120.000,309.200 119.640,309.200 119.200 C 309.200 118.760,309.020 118.400,308.800 118.400 C 308.580 118.400,308.400 118.040,308.400 117.600 C 308.400 117.160,308.220 116.800,308.000 116.800 C 307.780 116.800,307.600 116.564,307.600 116.275 C 307.600 115.987,307.240 115.364,306.800 114.892 C 306.360 114.420,306.000 113.756,306.000 113.417 C 306.000 113.078,305.820 112.800,305.600 112.800 C 305.380 112.800,305.200 112.607,305.200 112.372 C 305.200 112.137,304.705 111.189,304.100 110.265 C 302.119 107.242,301.979 107.007,301.742 106.300 C 301.612 105.915,301.337 105.600,301.130 105.600 C 300.922 105.600,300.864 105.420,301.000 105.200 C 301.136 104.980,300.967 104.800,300.624 104.800 C 300.281 104.800,300.000 104.566,300.000 104.280 C 300.000 103.544,299.059 101.607,298.700 101.603 C 298.535 101.601,298.400 101.330,298.400 101.000 C 298.400 100.670,298.220 100.400,298.000 100.400 C 297.780 100.400,297.600 100.040,297.600 99.600 C 297.600 99.160,297.420 98.800,297.200 98.800 C 296.980 98.800,296.800 98.522,296.800 98.183 C 296.800 97.844,296.440 97.180,296.000 96.708 C 295.560 96.236,295.200 95.613,295.200 95.325 C 295.200 95.036,295.020 94.800,294.800 94.800 C 294.580 94.800,294.400 94.440,294.400 94.000 C 294.400 93.560,294.242 93.200,294.049 93.200 C 293.855 93.200,293.473 92.660,293.200 92.000 C 292.927 91.340,292.545 90.800,292.351 90.800 C 292.158 90.800,292.000 90.440,292.000 90.000 C 292.000 89.560,291.820 89.200,291.600 89.200 C 291.380 89.200,291.200 88.880,291.200 88.488 C 291.200 88.097,290.840 87.517,290.400 87.200 C 289.960 86.883,289.600 86.318,289.600 85.945 C 289.600 85.572,289.465 85.207,289.300 85.133 C 289.135 85.060,288.567 84.145,288.037 83.100 C 287.508 82.055,286.923 81.200,286.737 81.200 C 286.552 81.200,286.400 80.840,286.400 80.400 C 286.400 79.960,286.254 79.600,286.075 79.600 C 285.896 79.600,285.502 78.970,285.200 78.200 C 284.898 77.430,284.548 76.800,284.423 76.800 C 284.298 76.800,283.936 76.215,283.620 75.500 C 283.303 74.785,282.720 73.851,282.322 73.425 C 281.925 72.998,281.600 72.323,281.600 71.925 C 281.600 71.526,281.441 71.200,281.247 71.200 C 281.052 71.200,280.788 70.885,280.658 70.500 C 280.376 69.660,279.652 68.531,278.700 67.446 C 278.315 67.008,278.000 66.413,278.000 66.125 C 278.000 65.836,277.820 65.600,277.600 65.600 C 277.380 65.600,277.200 65.280,277.200 64.888 C 277.200 64.497,276.840 63.917,276.400 63.600 C 275.960 63.283,275.600 62.703,275.600 62.312 C 275.600 61.920,275.420 61.600,275.200 61.600 C 274.980 61.600,274.800 61.280,274.800 60.888 C 274.800 60.497,274.440 59.917,274.000 59.600 C 273.560 59.283,273.200 58.703,273.200 58.312 C 273.200 57.920,273.020 57.600,272.800 57.600 C 272.580 57.600,272.396 57.285,272.391 56.900 C 272.386 56.515,272.030 55.750,271.600 55.200 C 271.170 54.650,270.814 53.975,270.809 53.700 C 270.804 53.425,270.665 53.199,270.500 53.197 C 270.189 53.194,269.200 51.297,269.200 50.704 C 269.200 50.518,268.840 49.980,268.400 49.508 C 267.960 49.036,267.600 48.413,267.600 48.125 C 267.600 47.836,267.420 47.600,267.200 47.600 C 266.980 47.600,266.800 47.240,266.800 46.800 C 266.800 46.360,266.620 46.000,266.400 46.000 C 266.180 46.000,266.000 45.764,266.000 45.475 C 266.000 45.187,265.640 44.564,265.200 44.092 C 264.760 43.620,264.400 42.971,264.400 42.650 C 264.400 42.329,264.233 42.007,264.030 41.933 C 263.826 41.860,263.601 41.530,263.530 41.200 C 263.458 40.870,263.085 40.309,262.700 39.953 C 262.315 39.597,262.000 39.012,262.000 38.653 C 262.000 38.294,261.820 38.000,261.600 38.000 C 261.380 38.000,261.200 37.680,261.200 37.288 C 261.200 36.897,260.840 36.317,260.400 36.000 C 259.960 35.683,259.600 35.103,259.600 34.712 C 259.600 34.320,259.420 34.000,259.200 34.000 C 258.980 34.000,258.800 33.726,258.800 33.390 C 258.800 32.862,256.788 29.545,255.601 28.117 C 255.381 27.851,255.200 27.439,255.200 27.200 C 255.200 26.962,254.840 26.380,254.400 25.908 C 253.960 25.436,253.600 24.813,253.600 24.525 C 253.600 24.236,253.420 24.000,253.200 24.000 C 252.980 24.000,252.800 23.640,252.800 23.200 C 252.800 22.760,252.620 22.400,252.400 22.400 C 252.180 22.400,252.000 22.164,252.000 21.875 C 252.000 21.587,251.640 20.964,251.200 20.492 C 250.760 20.020,250.400 19.356,250.400 19.017 C 250.400 18.678,250.220 18.400,250.000 18.400 C 249.780 18.400,249.600 18.164,249.600 17.875 C 249.600 17.587,249.240 16.964,248.800 16.492 C 248.360 16.020,248.000 15.356,248.000 15.017 C 248.000 14.678,247.820 14.400,247.600 14.400 C 247.380 14.400,247.200 14.080,247.200 13.688 C 247.200 13.297,246.840 12.717,246.400 12.400 C 245.960 12.083,245.600 11.503,245.600 11.112 C 245.600 10.720,245.420 10.400,245.200 10.400 C 244.980 10.400,244.800 10.166,244.800 9.880 C 244.800 9.144,243.859 7.207,243.500 7.203 C 243.335 7.201,243.200 6.930,243.200 6.600 C 243.200 6.270,243.020 6.000,242.800 6.000 C 242.580 6.000,242.400 5.640,242.400 5.200 C 242.400 4.760,242.250 4.400,242.068 4.400 C 241.885 4.400,241.480 3.905,241.168 3.300 C 240.856 2.695,240.511 2.110,240.401 2.000 C 240.290 1.890,240.000 1.440,239.756 1.000 C 239.315 0.205,238.849 0.199,158.556 0.106 C 114.140 0.054,77.997 0.144,78.239 0.306 M81.900 279.076 C 81.158 279.270,80.885 281.200,81.600 281.200 C 81.820 281.200,82.000 281.436,82.000 281.725 C 82.000 282.013,82.360 282.636,82.800 283.108 C 83.240 283.580,83.600 284.244,83.600 284.583 C 83.600 284.922,83.780 285.200,84.000 285.200 C 84.220 285.200,84.400 285.478,84.400 285.817 C 84.400 286.156,84.760 286.820,85.200 287.292 C 85.640 287.764,86.000 288.387,86.000 288.675 C 86.000 288.964,86.180 289.200,86.400 289.200 C 86.620 289.200,86.804 289.515,86.809 289.900 C 86.814 290.285,87.170 291.050,87.600 291.600 C 88.030 292.150,88.386 292.825,88.391 293.100 C 88.396 293.375,88.535 293.601,88.700 293.603 C 89.059 293.607,90.000 295.544,90.000 296.280 C 90.000 296.566,90.180 296.800,90.400 296.800 C 90.620 296.800,90.800 297.036,90.800 297.325 C 90.800 297.613,91.160 298.236,91.600 298.708 C 92.040 299.180,92.400 299.844,92.400 300.183 C 92.400 300.522,92.580 300.800,92.800 300.800 C 93.020 300.800,93.200 301.160,93.200 301.600 C 93.200 302.040,93.380 302.400,93.600 302.400 C 93.820 302.400,94.000 302.670,94.000 303.000 C 94.000 303.330,94.180 303.600,94.400 303.600 C 94.620 303.600,94.800 303.870,94.800 304.200 C 94.800 304.530,94.935 304.803,95.100 304.806 C 95.265 304.810,96.026 306.070,96.791 307.606 C 97.556 309.143,98.321 310.400,98.491 310.400 C 98.661 310.400,98.800 310.676,98.800 311.013 C 98.800 311.349,99.070 311.729,99.400 311.855 C 99.730 311.982,100.000 312.426,100.000 312.843 C 100.000 313.259,100.180 313.600,100.400 313.600 C 100.620 313.600,100.800 313.960,100.800 314.400 C 100.800 314.840,100.980 315.200,101.200 315.200 C 101.420 315.200,101.600 315.470,101.600 315.800 C 101.600 316.130,101.735 316.401,101.900 316.403 C 102.237 316.407,103.200 318.325,103.200 318.991 C 103.200 319.229,103.560 319.683,104.000 320.000 C 104.440 320.317,104.800 320.897,104.800 321.288 C 104.800 321.680,104.980 322.000,105.200 322.000 C 105.420 322.000,105.600 322.360,105.600 322.800 C 105.600 323.240,105.780 323.600,106.000 323.600 C 106.220 323.600,106.400 323.878,106.400 324.217 C 106.400 324.556,106.760 325.220,107.200 325.692 C 107.640 326.164,108.000 326.787,108.000 327.075 C 108.000 327.364,108.180 327.600,108.400 327.600 C 108.620 327.600,108.800 327.945,108.800 328.367 C 108.800 328.788,108.967 329.193,109.170 329.267 C 109.374 329.340,109.599 329.663,109.670 329.984 C 109.742 330.306,110.115 330.925,110.500 331.360 C 110.885 331.795,111.200 332.387,111.200 332.675 C 111.200 332.964,111.380 333.200,111.600 333.200 C 111.820 333.200,112.000 333.545,112.000 333.967 C 112.000 334.388,112.167 334.793,112.370 334.867 C 112.574 334.940,112.799 335.270,112.870 335.600 C 112.942 335.930,113.315 336.491,113.700 336.847 C 114.085 337.203,114.400 337.700,114.400 337.952 C 114.400 338.422,115.215 340.040,115.632 340.400 C 115.760 340.510,116.119 341.185,116.430 341.900 C 116.741 342.615,117.131 343.200,117.298 343.200 C 117.464 343.200,117.600 343.560,117.600 344.000 C 117.600 344.440,117.780 344.800,118.000 344.800 C 118.220 344.800,118.400 345.042,118.400 345.338 C 118.400 345.634,118.760 346.202,119.200 346.600 C 119.640 346.998,120.000 347.656,120.000 348.062 C 120.000 348.468,120.159 348.800,120.353 348.800 C 120.548 348.800,120.812 349.115,120.942 349.500 C 121.265 350.462,122.063 351.661,122.900 352.441 C 123.285 352.800,123.600 353.388,123.600 353.747 C 123.600 354.106,123.780 354.400,124.000 354.400 C 124.220 354.400,124.400 354.760,124.400 355.200 C 124.400 355.640,124.580 356.000,124.800 356.000 C 125.020 356.000,125.200 356.360,125.200 356.800 C 125.200 357.240,125.352 357.600,125.537 357.600 C 125.723 357.600,126.308 358.455,126.837 359.500 C 127.367 360.545,127.935 361.460,128.100 361.533 C 128.265 361.607,128.404 361.967,128.409 362.333 C 128.414 362.700,128.770 363.450,129.200 364.000 C 129.630 364.550,129.986 365.225,129.991 365.500 C 129.996 365.775,130.180 366.000,130.400 366.000 C 130.620 366.000,130.800 366.360,130.800 366.800 C 130.800 367.240,130.958 367.600,131.151 367.600 C 131.345 367.600,131.727 368.140,132.000 368.800 C 132.273 369.460,132.655 370.000,132.849 370.000 C 133.042 370.000,133.200 370.345,133.200 370.767 C 133.200 371.188,133.335 371.593,133.500 371.667 C 133.665 371.740,134.233 372.655,134.763 373.700 C 135.292 374.745,135.877 375.600,136.063 375.600 C 136.248 375.600,136.400 375.960,136.400 376.400 C 136.400 376.840,136.580 377.200,136.800 377.200 C 137.020 377.200,137.200 377.560,137.200 378.000 C 137.200 378.440,137.358 378.800,137.551 378.800 C 137.745 378.800,138.127 379.340,138.400 380.000 C 138.673 380.660,139.011 381.200,139.151 381.200 C 139.389 381.200,140.396 383.199,140.506 383.888 C 140.533 384.059,140.835 384.501,141.178 384.869 C 141.520 385.237,142.340 386.587,143.000 387.869 C 143.660 389.151,144.515 390.549,144.900 390.975 C 145.285 391.402,145.600 391.987,145.600 392.275 C 145.600 392.564,145.780 392.800,146.000 392.800 C 146.220 392.800,146.400 393.145,146.400 393.567 C 146.400 393.988,146.535 394.393,146.700 394.467 C 147.076 394.634,148.375 396.764,148.671 397.700 C 148.793 398.085,149.052 398.400,149.247 398.400 C 149.441 398.400,149.600 398.760,149.600 399.200 C 149.600 399.640,149.780 400.000,150.000 400.000 C 150.220 400.000,150.400 400.320,150.400 400.712 C 150.400 401.103,150.760 401.683,151.200 402.000 C 151.640 402.317,152.000 402.897,152.000 403.288 C 152.000 403.680,152.180 404.000,152.400 404.000 C 152.620 404.000,152.800 404.360,152.800 404.800 C 152.800 405.240,152.980 405.600,153.200 405.600 C 153.420 405.600,153.600 405.960,153.600 406.400 C 153.600 406.840,153.780 407.200,154.000 407.200 C 154.220 407.200,154.400 407.470,154.400 407.800 C 154.400 408.130,154.580 408.400,154.800 408.400 C 155.020 408.400,155.200 408.760,155.200 409.200 C 155.200 409.640,155.380 410.000,155.600 410.000 C 155.820 410.000,156.000 410.270,156.000 410.600 C 156.000 410.930,156.180 411.200,156.400 411.200 C 156.620 411.200,156.800 411.470,156.800 411.800 C 156.800 412.130,156.980 412.400,157.200 412.400 C 157.420 412.400,157.600 412.760,157.600 413.200 C 157.600 413.640,157.746 414.000,157.925 414.000 C 158.104 414.000,158.498 414.630,158.800 415.400 L 159.349 416.800 239.475 416.800 C 283.544 416.800,319.600 416.733,319.600 416.652 C 319.600 416.570,318.406 414.455,316.946 411.952 C 315.486 409.448,313.956 406.815,313.546 406.100 C 312.212 403.774,306.936 394.663,304.802 391.000 C 303.985 389.598,292.651 370.014,291.549 368.100 C 291.137 367.385,290.463 366.215,290.051 365.500 C 289.640 364.785,288.356 362.580,287.200 360.600 C 284.414 355.830,284.579 356.114,277.800 344.400 C 270.906 332.487,271.119 332.854,268.397 328.200 C 267.239 326.220,265.750 323.610,265.088 322.400 C 264.426 321.190,263.750 320.020,263.585 319.800 C 263.420 319.580,262.906 318.725,262.443 317.900 C 261.340 315.937,261.002 315.352,254.989 305.000 C 252.178 300.160,248.263 293.410,246.290 290.000 C 244.317 286.590,242.335 283.170,241.886 282.400 C 241.437 281.630,240.816 280.505,240.505 279.900 L 239.941 278.800 161.271 278.846 C 118.002 278.872,82.285 278.975,81.900 279.076 " stroke="none" fill="#bbab7b" fill-rule="evenodd"></path><path id="path1" d="M76.595 1.900 C 76.162 2.725,75.696 3.490,75.558 3.600 C 75.331 3.783,72.490 8.954,71.440 11.097 C 71.198 11.590,70.865 11.995,70.700 11.997 C 70.535 11.999,70.400 12.360,70.400 12.800 C 70.400 13.240,70.220 13.600,70.000 13.600 C 69.780 13.600,69.600 13.878,69.600 14.217 C 69.600 14.556,69.240 15.220,68.800 15.692 C 68.360 16.164,68.000 16.787,68.000 17.075 C 68.000 17.364,67.820 17.600,67.600 17.600 C 67.380 17.600,67.200 17.960,67.200 18.400 C 67.200 18.840,67.020 19.200,66.800 19.200 C 66.580 19.200,66.400 19.560,66.400 20.000 C 66.400 20.440,66.220 20.800,66.000 20.800 C 65.780 20.800,65.600 21.036,65.600 21.325 C 65.600 21.613,65.240 22.236,64.800 22.708 C 64.360 23.180,64.000 23.844,64.000 24.183 C 64.000 24.522,63.820 24.800,63.600 24.800 C 63.380 24.800,63.200 25.160,63.200 25.600 C 63.200 26.040,63.020 26.400,62.800 26.400 C 62.580 26.400,62.400 26.678,62.400 27.017 C 62.400 27.356,62.040 28.020,61.600 28.492 C 61.160 28.964,60.800 29.587,60.800 29.875 C 60.800 30.164,60.620 30.400,60.400 30.400 C 60.180 30.400,60.000 30.760,60.000 31.200 C 60.000 31.640,59.820 32.000,59.600 32.000 C 59.380 32.000,59.200 32.360,59.200 32.800 C 59.200 33.240,59.020 33.600,58.800 33.600 C 58.580 33.600,58.400 33.870,58.400 34.200 C 58.400 34.530,58.220 34.800,58.000 34.800 C 57.780 34.800,57.600 35.160,57.600 35.600 C 57.600 36.040,57.420 36.400,57.200 36.400 C 56.980 36.400,56.800 36.760,56.800 37.200 C 56.800 37.640,56.620 38.000,56.400 38.000 C 56.180 38.000,56.000 38.341,56.000 38.757 C 56.000 39.174,55.711 39.625,55.358 39.761 C 54.992 39.901,54.815 40.263,54.946 40.603 C 55.081 40.955,54.948 41.200,54.621 41.200 C 54.316 41.200,53.828 41.740,53.536 42.400 C 53.244 43.060,52.869 43.600,52.702 43.600 C 52.536 43.600,52.400 43.960,52.400 44.400 C 52.400 44.840,52.220 45.200,52.000 45.200 C 51.780 45.200,51.600 45.478,51.600 45.817 C 51.600 46.156,51.240 46.820,50.800 47.292 C 50.360 47.764,50.000 48.387,50.000 48.675 C 50.000 48.964,49.820 49.200,49.600 49.200 C 49.380 49.200,49.200 49.560,49.200 50.000 C 49.200 50.440,49.020 50.800,48.800 50.800 C 48.580 50.800,48.400 51.160,48.400 51.600 C 48.400 52.040,48.220 52.400,48.000 52.400 C 47.780 52.400,47.600 52.655,47.600 52.967 C 47.600 53.278,47.465 53.593,47.300 53.667 C 46.935 53.829,45.200 57.124,45.200 57.655 C 45.200 57.863,44.840 58.420,44.400 58.892 C 43.960 59.364,43.600 59.987,43.600 60.275 C 43.600 60.564,43.420 60.800,43.200 60.800 C 42.980 60.800,42.800 61.160,42.800 61.600 C 42.800 62.040,42.620 62.400,42.400 62.400 C 42.180 62.400,42.000 62.760,42.000 63.200 C 42.000 63.640,41.820 64.000,41.600 64.000 C 41.380 64.000,41.200 64.320,41.200 64.712 C 41.200 65.103,40.840 65.683,40.400 66.000 C 39.960 66.317,39.600 66.897,39.600 67.288 C 39.600 67.680,39.420 68.000,39.200 68.000 C 38.980 68.000,38.800 68.360,38.800 68.800 C 38.800 69.240,38.654 69.600,38.475 69.600 C 38.296 69.600,37.905 70.222,37.607 70.982 C 37.309 71.742,36.915 72.271,36.732 72.158 C 36.550 72.045,36.400 72.323,36.400 72.776 C 36.400 73.229,36.220 73.600,36.000 73.600 C 35.780 73.600,35.600 73.960,35.600 74.400 C 35.600 74.840,35.420 75.200,35.200 75.200 C 34.980 75.200,34.800 75.560,34.800 76.000 C 34.800 76.440,34.620 76.800,34.400 76.800 C 34.180 76.800,34.000 77.008,34.000 77.262 C 34.000 77.516,33.550 78.314,33.000 79.036 C 32.450 79.757,32.000 80.539,32.000 80.773 C 32.000 81.008,31.820 81.200,31.600 81.200 C 31.380 81.200,31.200 81.560,31.200 82.000 C 31.200 82.440,31.042 82.800,30.849 82.800 C 30.655 82.800,30.273 83.340,30.000 84.000 C 29.727 84.660,29.345 85.200,29.151 85.200 C 28.958 85.200,28.800 85.472,28.800 85.805 C 28.800 86.361,28.078 87.922,27.600 88.400 C 27.204 88.796,25.946 91.015,25.729 91.700 C 25.607 92.085,25.348 92.400,25.153 92.400 C 24.959 92.400,24.800 92.760,24.800 93.200 C 24.800 93.640,24.620 94.000,24.400 94.000 C 24.180 94.000,24.000 94.278,24.000 94.617 C 24.000 94.956,23.640 95.620,23.200 96.092 C 22.760 96.564,22.400 97.187,22.400 97.475 C 22.400 97.764,22.220 98.000,22.000 98.000 C 21.780 98.000,21.600 98.360,21.600 98.800 C 21.600 99.240,21.420 99.600,21.200 99.600 C 20.980 99.600,20.800 99.960,20.800 100.400 C 20.800 100.840,20.620 101.200,20.400 101.200 C 20.180 101.200,20.000 101.470,20.000 101.800 C 20.000 102.130,19.820 102.400,19.600 102.400 C 19.380 102.400,19.200 102.760,19.200 103.200 C 19.200 103.640,19.020 104.000,18.800 104.000 C 18.580 104.000,18.400 104.360,18.400 104.800 C 18.400 105.240,18.220 105.600,18.000 105.600 C 17.780 105.600,17.600 105.960,17.600 106.400 C 17.600 106.840,17.420 107.200,17.200 107.200 C 16.980 107.200,16.800 107.520,16.800 107.912 C 16.800 108.303,16.440 108.883,16.000 109.200 C 15.560 109.517,15.200 110.097,15.200 110.488 C 15.200 110.880,15.020 111.200,14.800 111.200 C 14.580 111.200,14.400 111.560,14.400 112.000 C 14.400 112.440,14.220 112.800,14.000 112.800 C 13.780 112.800,13.600 113.036,13.600 113.325 C 13.600 113.613,13.240 114.236,12.800 114.708 C 12.360 115.180,12.000 115.844,12.000 116.183 C 12.000 116.522,11.820 116.800,11.600 116.800 C 11.380 116.800,11.200 117.141,11.200 117.557 C 11.200 117.974,10.930 118.418,10.600 118.545 C 10.270 118.671,10.000 118.978,10.000 119.226 C 10.000 119.474,9.638 120.185,9.195 120.807 C 8.463 121.835,6.549 125.246,5.441 127.497 C 5.199 127.990,4.865 128.395,4.700 128.397 C 4.535 128.399,4.400 128.760,4.400 129.200 C 4.400 129.640,4.220 130.000,4.000 130.000 C 3.780 130.000,3.600 130.360,3.600 130.800 C 3.600 131.240,3.420 131.600,3.200 131.600 C 2.980 131.600,2.800 131.920,2.800 132.312 C 2.800 132.703,2.440 133.283,2.000 133.600 C 1.560 133.917,1.200 134.482,1.200 134.855 C 1.200 135.228,1.002 135.599,0.761 135.680 C -0.023 135.941,-0.197 140.946,0.551 141.694 C 0.908 142.051,1.200 142.626,1.200 142.971 C 1.200 143.317,1.380 143.600,1.600 143.600 C 1.820 143.600,2.000 143.960,2.000 144.400 C 2.000 144.840,2.180 145.200,2.400 145.200 C 2.620 145.200,2.800 145.520,2.800 145.912 C 2.800 146.303,3.160 146.883,3.600 147.200 C 4.040 147.517,4.400 148.097,4.400 148.488 C 4.400 148.880,4.580 149.200,4.800 149.200 C 5.020 149.200,5.200 149.560,5.200 150.000 C 5.200 150.440,5.335 150.801,5.500 150.803 C 5.665 150.805,5.996 151.210,6.236 151.703 C 7.333 153.958,9.366 157.413,9.667 157.533 C 9.850 157.607,10.000 157.927,10.000 158.246 C 10.000 158.564,10.270 158.929,10.600 159.055 C 10.930 159.182,11.200 159.626,11.200 160.043 C 11.200 160.459,11.380 160.800,11.600 160.800 C 11.820 160.800,12.000 161.120,12.000 161.512 C 12.000 161.903,12.360 162.483,12.800 162.800 C 13.240 163.117,13.600 163.697,13.600 164.088 C 13.600 164.480,13.780 164.800,14.000 164.800 C 14.220 164.800,14.400 165.078,14.400 165.417 C 14.400 165.756,14.760 166.420,15.200 166.892 C 15.640 167.364,16.000 167.987,16.000 168.275 C 16.000 168.564,16.180 168.800,16.400 168.800 C 16.620 168.800,16.800 169.160,16.800 169.600 C 16.800 170.040,16.980 170.400,17.200 170.400 C 17.420 170.400,17.600 170.720,17.600 171.112 C 17.600 171.503,17.960 172.083,18.400 172.400 C 18.840 172.717,19.200 173.190,19.200 173.451 C 19.200 174.142,20.892 177.200,21.274 177.200 C 21.453 177.200,21.600 177.560,21.600 178.000 C 21.600 178.440,21.780 178.800,22.000 178.800 C 22.220 178.800,22.400 179.160,22.400 179.600 C 22.400 180.040,22.580 180.400,22.800 180.400 C 23.020 180.400,23.200 180.636,23.200 180.925 C 23.200 181.213,23.560 181.836,24.000 182.308 C 24.440 182.780,24.800 183.444,24.800 183.783 C 24.800 184.122,24.980 184.400,25.200 184.400 C 25.420 184.400,25.600 184.760,25.600 185.200 C 25.600 185.640,25.758 186.000,25.951 186.000 C 26.145 186.000,26.527 186.540,26.800 187.200 C 27.073 187.860,27.455 188.400,27.649 188.400 C 27.842 188.400,28.000 188.760,28.000 189.200 C 28.000 189.640,28.180 190.000,28.400 190.000 C 28.620 190.000,28.800 190.236,28.800 190.525 C 28.800 190.813,29.160 191.436,29.600 191.908 C 30.040 192.380,30.400 193.044,30.400 193.383 C 30.400 193.722,30.580 194.000,30.800 194.000 C 31.020 194.000,31.200 194.184,31.200 194.409 C 31.200 194.894,33.269 198.142,33.700 198.333 C 33.865 198.407,34.000 198.812,34.000 199.233 C 34.000 199.655,34.180 200.000,34.400 200.000 C 34.620 200.000,34.800 200.278,34.800 200.617 C 34.800 200.956,35.160 201.620,35.600 202.092 C 36.040 202.564,36.400 203.187,36.400 203.475 C 36.400 203.764,36.580 204.000,36.800 204.000 C 37.020 204.000,37.200 204.360,37.200 204.800 C 37.200 205.240,37.380 205.600,37.600 205.600 C 37.820 205.600,38.000 205.920,38.000 206.312 C 38.000 206.703,38.360 207.283,38.800 207.600 C 39.240 207.917,39.600 208.497,39.600 208.888 C 39.600 209.280,39.780 209.600,40.000 209.600 C 40.220 209.600,40.400 209.920,40.400 210.312 C 40.400 210.703,40.760 211.283,41.200 211.600 C 41.640 211.917,42.000 212.497,42.000 212.888 C 42.000 213.280,42.180 213.600,42.400 213.600 C 42.620 213.600,42.800 213.960,42.800 214.400 C 42.800 214.840,42.980 215.200,43.200 215.200 C 43.420 215.200,43.600 215.520,43.600 215.912 C 43.600 216.303,43.960 216.883,44.400 217.200 C 44.840 217.517,45.200 218.097,45.200 218.488 C 45.200 218.880,45.380 219.200,45.600 219.200 C 45.820 219.200,46.000 219.560,46.000 220.000 C 46.000 220.440,46.146 220.800,46.325 220.800 C 46.504 220.800,46.898 221.430,47.200 222.200 C 47.502 222.970,47.896 223.600,48.075 223.600 C 48.254 223.600,48.400 223.960,48.400 224.400 C 48.400 224.840,48.580 225.200,48.800 225.200 C 49.020 225.200,49.200 225.436,49.200 225.725 C 49.200 226.013,49.560 226.636,50.000 227.108 C 50.440 227.580,50.800 228.229,50.800 228.550 C 50.800 228.871,50.935 229.193,51.100 229.267 C 51.265 229.340,51.837 230.210,52.370 231.200 C 52.904 232.190,53.444 233.090,53.570 233.200 C 53.697 233.310,54.151 234.030,54.580 234.800 C 55.009 235.570,55.684 236.549,56.080 236.975 C 56.476 237.402,56.800 237.987,56.800 238.275 C 56.800 238.564,56.980 238.800,57.200 238.800 C 57.420 238.800,57.600 239.160,57.600 239.600 C 57.600 240.040,57.780 240.400,58.000 240.400 C 58.220 240.400,58.400 240.720,58.400 241.112 C 58.400 241.503,58.760 242.083,59.200 242.400 C 59.640 242.717,60.000 243.387,60.000 243.888 C 60.000 244.390,60.180 244.800,60.400 244.800 C 60.620 244.800,60.800 245.036,60.800 245.325 C 60.800 245.613,61.160 246.236,61.600 246.708 C 62.040 247.180,62.400 247.844,62.400 248.183 C 62.400 248.522,62.580 248.800,62.800 248.800 C 63.020 248.800,63.200 249.160,63.200 249.600 C 63.200 250.040,63.380 250.400,63.600 250.400 C 63.820 250.400,64.000 250.720,64.000 251.112 C 64.000 251.503,64.360 252.083,64.800 252.400 C 65.240 252.717,65.600 253.297,65.600 253.688 C 65.600 254.080,65.780 254.400,66.000 254.400 C 66.220 254.400,66.400 254.760,66.400 255.200 C 66.400 255.640,66.580 256.000,66.800 256.000 C 67.020 256.000,67.200 256.236,67.200 256.525 C 67.200 256.813,67.560 257.436,68.000 257.908 C 68.440 258.380,68.800 259.044,68.800 259.383 C 68.800 259.722,68.980 260.000,69.200 260.000 C 69.420 260.000,69.600 260.278,69.600 260.617 C 69.600 260.956,69.960 261.620,70.400 262.092 C 70.840 262.564,71.200 263.187,71.200 263.475 C 71.200 263.764,71.380 264.000,71.600 264.000 C 71.820 264.000,72.000 264.360,72.000 264.800 C 72.000 265.240,72.135 265.601,72.300 265.603 C 72.465 265.605,72.795 266.010,73.033 266.503 C 73.804 268.100,75.690 271.384,76.191 272.000 C 76.459 272.330,76.790 272.915,76.927 273.300 C 77.063 273.685,77.361 274.000,77.587 274.000 C 77.814 274.000,78.000 274.360,78.000 274.800 C 78.000 275.240,78.180 275.600,78.400 275.600 C 78.620 275.600,78.800 275.920,78.800 276.312 C 78.800 276.703,79.160 277.283,79.600 277.600 C 80.040 277.917,80.400 278.516,80.400 278.931 C 80.400 279.457,80.593 279.612,81.037 279.441 C 81.388 279.307,82.108 279.088,82.637 278.955 C 83.230 278.806,83.600 278.422,83.600 277.957 C 83.600 277.540,83.780 277.200,84.000 277.200 C 84.220 277.200,84.400 276.855,84.400 276.433 C 84.400 276.012,84.535 275.607,84.700 275.533 C 85.076 275.366,86.375 273.236,86.671 272.300 C 86.793 271.915,87.052 271.600,87.247 271.600 C 87.441 271.600,87.600 271.240,87.600 270.800 C 87.600 270.360,87.780 270.000,88.000 270.000 C 88.220 270.000,88.400 269.640,88.400 269.200 C 88.400 268.760,88.546 268.400,88.725 268.400 C 88.904 268.400,89.298 267.770,89.600 267.000 C 89.902 266.230,90.296 265.600,90.475 265.600 C 90.654 265.600,90.800 265.240,90.800 264.800 C 90.800 264.360,90.980 264.000,91.200 264.000 C 91.420 264.000,91.600 263.640,91.600 263.200 C 91.600 262.760,91.780 262.400,92.000 262.400 C 92.220 262.400,92.400 262.040,92.400 261.600 C 92.400 261.160,92.580 260.800,92.800 260.800 C 93.020 260.800,93.200 260.480,93.200 260.088 C 93.200 259.697,93.560 259.117,94.000 258.800 C 94.440 258.483,94.800 257.903,94.800 257.512 C 94.800 257.120,94.980 256.800,95.200 256.800 C 95.420 256.800,95.600 256.440,95.600 256.000 C 95.600 255.560,95.780 255.200,96.000 255.200 C 96.220 255.200,96.400 254.840,96.400 254.400 C 96.400 253.960,96.580 253.600,96.800 253.600 C 97.020 253.600,97.200 253.364,97.200 253.075 C 97.200 252.787,97.560 252.164,98.000 251.692 C 98.440 251.220,98.800 250.556,98.800 250.217 C 98.800 249.878,98.980 249.600,99.200 249.600 C 99.420 249.600,99.600 249.240,99.600 248.800 C 99.600 248.360,99.745 248.000,99.922 248.000 C 100.099 248.000,100.938 246.650,101.787 245.000 C 102.636 243.350,103.481 242.000,103.665 242.000 C 103.849 242.000,104.000 241.640,104.000 241.200 C 104.000 240.760,104.180 240.400,104.400 240.400 C 104.620 240.400,104.800 240.040,104.800 239.600 C 104.800 239.160,104.980 238.800,105.200 238.800 C 105.420 238.800,105.600 238.522,105.600 238.183 C 105.600 237.844,105.960 237.180,106.400 236.708 C 106.840 236.236,107.200 235.613,107.200 235.325 C 107.200 235.036,107.380 234.800,107.600 234.800 C 107.820 234.800,108.000 234.440,108.000 234.000 C 108.000 233.560,108.180 233.200,108.400 233.200 C 108.620 233.200,108.800 232.840,108.800 232.400 C 108.800 231.960,108.980 231.600,109.200 231.600 C 109.420 231.600,109.600 231.322,109.600 230.983 C 109.600 230.644,109.960 229.980,110.400 229.508 C 110.840 229.036,111.200 228.413,111.200 228.125 C 111.200 227.836,111.380 227.600,111.600 227.600 C 111.820 227.600,112.000 227.240,112.000 226.800 C 112.000 226.360,112.180 226.000,112.400 226.000 C 112.620 226.000,112.800 225.640,112.800 225.200 C 112.800 224.760,112.980 224.400,113.200 224.400 C 113.420 224.400,113.600 224.040,113.600 223.600 C 113.600 223.160,113.780 222.800,114.000 222.800 C 114.220 222.800,114.400 222.530,114.400 222.200 C 114.400 221.870,114.580 221.600,114.800 221.600 C 115.020 221.600,115.200 221.240,115.200 220.800 C 115.200 220.360,115.380 220.000,115.600 220.000 C 115.820 220.000,116.000 219.640,116.000 219.200 C 116.000 218.760,116.180 218.400,116.400 218.400 C 116.620 218.400,116.800 218.040,116.800 217.600 C 116.800 217.160,116.980 216.800,117.200 216.800 C 117.420 216.800,117.600 216.440,117.600 216.000 C 117.600 215.560,117.780 215.200,118.000 215.200 C 118.220 215.200,118.400 214.880,118.400 214.488 C 118.400 214.097,118.760 213.517,119.200 213.200 C 119.640 212.883,120.000 212.303,120.000 211.912 C 120.000 211.520,120.180 211.200,120.400 211.200 C 120.620 211.200,120.800 210.840,120.800 210.400 C 120.800 209.960,120.980 209.600,121.200 209.600 C 121.420 209.600,121.600 209.317,121.600 208.971 C 121.600 208.626,121.825 208.092,122.100 207.785 C 123.328 206.416,123.686 205.844,125.642 202.134 C 126.783 199.970,127.915 197.796,128.158 197.303 C 128.401 196.810,128.735 196.405,128.900 196.403 C 129.065 196.401,129.200 196.040,129.200 195.600 C 129.200 195.160,129.380 194.800,129.600 194.800 C 129.820 194.800,130.000 194.440,130.000 194.000 C 130.000 193.560,130.180 193.200,130.400 193.200 C 130.620 193.200,130.800 192.840,130.800 192.400 C 130.800 191.960,130.980 191.600,131.200 191.600 C 131.420 191.600,131.600 191.330,131.600 191.000 C 131.600 190.670,131.780 190.400,132.000 190.400 C 132.220 190.400,132.400 190.130,132.400 189.800 C 132.400 189.470,132.580 189.200,132.800 189.200 C 133.020 189.200,133.200 188.840,133.200 188.400 C 133.200 187.960,133.380 187.600,133.600 187.600 C 133.820 187.600,134.000 187.240,134.000 186.800 C 134.000 186.360,134.180 186.000,134.400 186.000 C 134.620 186.000,134.800 185.722,134.800 185.383 C 134.800 185.044,135.160 184.380,135.600 183.908 C 136.040 183.436,136.400 182.813,136.400 182.525 C 136.400 182.236,136.580 182.000,136.800 182.000 C 137.020 182.000,137.200 181.640,137.200 181.200 C 137.200 180.760,137.380 180.400,137.600 180.400 C 137.820 180.400,138.000 180.040,138.000 179.600 C 138.000 179.160,138.180 178.800,138.400 178.800 C 138.620 178.800,138.800 178.440,138.800 178.000 C 138.800 177.560,138.980 177.200,139.200 177.200 C 139.420 177.200,139.600 176.930,139.600 176.600 C 139.600 176.270,139.780 176.000,140.000 176.000 C 140.220 176.000,140.400 175.640,140.400 175.200 C 140.400 174.760,140.580 174.400,140.800 174.400 C 141.020 174.400,141.200 174.040,141.200 173.600 C 141.200 173.160,141.380 172.800,141.600 172.800 C 141.820 172.800,142.000 172.440,142.000 172.000 C 142.000 171.560,142.180 171.200,142.400 171.200 C 142.620 171.200,142.800 170.840,142.800 170.400 C 142.800 169.960,142.980 169.600,143.200 169.600 C 143.420 169.600,143.600 169.322,143.600 168.982 C 143.600 168.642,144.029 167.934,144.554 167.409 C 145.079 166.884,145.753 165.903,146.052 165.228 C 146.351 164.552,146.731 164.000,146.898 164.000 C 147.064 164.000,147.200 163.640,147.200 163.200 C 147.200 162.760,147.380 162.400,147.600 162.400 C 147.820 162.400,148.000 162.040,148.000 161.600 C 148.000 161.160,148.152 160.800,148.337 160.800 C 148.523 160.800,149.108 159.945,149.637 158.900 C 150.167 157.855,150.735 156.940,150.900 156.867 C 151.065 156.793,151.200 156.388,151.200 155.967 C 151.200 155.545,151.380 155.200,151.600 155.200 C 151.820 155.200,152.000 154.840,152.000 154.400 C 152.000 153.960,152.180 153.600,152.400 153.600 C 152.620 153.600,152.800 153.330,152.800 153.000 C 152.800 152.670,152.980 152.400,153.200 152.400 C 153.420 152.400,153.600 152.040,153.600 151.600 C 153.600 151.160,153.780 150.800,154.000 150.800 C 154.220 150.800,154.400 150.440,154.400 150.000 C 154.400 149.560,154.580 149.200,154.800 149.200 C 155.020 149.200,155.200 148.840,155.200 148.400 C 155.200 147.960,155.380 147.600,155.600 147.600 C 155.820 147.600,156.000 147.240,156.000 146.800 C 156.000 146.360,156.180 146.000,156.400 146.000 C 156.620 146.000,156.800 145.719,156.800 145.376 C 156.800 145.033,156.984 144.867,157.210 145.006 C 157.435 145.145,157.575 145.111,157.521 144.930 C 157.379 144.460,158.535 142.000,158.898 142.000 C 159.064 142.000,159.200 141.655,159.200 141.233 C 159.200 140.812,159.425 140.388,159.700 140.292 C 160.082 140.158,160.059 139.938,159.600 139.358 C 159.270 138.941,158.758 138.170,158.462 137.645 C 157.372 135.709,156.454 134.116,154.400 130.600 C 153.244 128.620,151.985 126.460,151.604 125.800 C 151.223 125.140,148.070 119.740,144.598 113.800 C 141.126 107.860,137.975 102.460,137.594 101.800 C 137.214 101.140,135.956 98.980,134.800 97.000 C 132.741 93.474,131.956 92.119,130.455 89.500 C 130.046 88.785,126.870 83.340,123.398 77.400 C 119.926 71.460,116.775 66.060,116.394 65.400 C 116.014 64.740,114.756 62.580,113.600 60.600 C 110.961 56.082,110.707 55.645,107.310 49.800 C 104.015 44.131,96.712 31.615,93.890 26.800 C 92.794 24.930,91.560 22.815,91.149 22.100 C 90.737 21.385,90.063 20.215,89.651 19.500 C 88.774 17.976,85.074 11.637,83.849 9.560 C 83.382 8.767,82.010 6.382,80.800 4.260 C 78.364 -0.013,77.773 -0.345,76.595 1.900 M319.017 139.324 C 317.734 140.104,317.200 140.706,317.200 141.371 C 317.200 141.717,317.020 142.000,316.800 142.000 C 316.580 142.000,316.400 142.360,316.400 142.800 C 316.400 143.240,316.220 143.600,316.000 143.600 C 315.780 143.600,315.600 143.855,315.600 144.167 C 315.600 144.478,315.465 144.793,315.300 144.867 C 315.045 144.980,313.509 147.750,311.846 151.097 C 311.601 151.590,311.265 151.995,311.100 151.997 C 310.935 151.999,310.800 152.360,310.800 152.800 C 310.800 153.240,310.620 153.600,310.400 153.600 C 310.180 153.600,310.000 153.960,310.000 154.400 C 310.000 154.840,309.820 155.200,309.600 155.200 C 309.380 155.200,309.200 155.520,309.200 155.912 C 309.200 156.303,308.840 156.883,308.400 157.200 C 307.960 157.517,307.600 158.097,307.600 158.488 C 307.600 158.880,307.420 159.200,307.200 159.200 C 306.980 159.200,306.800 159.560,306.800 160.000 C 306.800 160.440,306.620 160.800,306.400 160.800 C 306.180 160.800,306.000 161.036,306.000 161.325 C 306.000 161.613,305.640 162.236,305.200 162.708 C 304.760 163.180,304.400 163.844,304.400 164.183 C 304.400 164.522,304.220 164.800,304.000 164.800 C 303.780 164.800,303.600 165.160,303.600 165.600 C 303.600 166.040,303.420 166.400,303.200 166.400 C 302.980 166.400,302.800 166.678,302.800 167.017 C 302.800 167.356,302.440 168.020,302.000 168.492 C 301.560 168.964,301.200 169.688,301.200 170.099 C 301.200 170.511,301.020 170.736,300.800 170.600 C 300.580 170.464,300.400 170.723,300.400 171.176 C 300.400 171.629,300.223 172.000,300.008 172.000 C 299.792 172.000,299.502 172.450,299.364 173.000 C 299.226 173.550,298.953 174.000,298.757 174.000 C 298.560 174.000,298.400 174.236,298.400 174.525 C 298.400 174.813,298.040 175.436,297.600 175.908 C 297.160 176.380,296.800 177.044,296.800 177.383 C 296.800 177.722,296.620 178.000,296.400 178.000 C 296.180 178.000,296.000 178.360,296.000 178.800 C 296.000 179.240,295.842 179.600,295.649 179.600 C 295.455 179.600,295.073 180.140,294.800 180.800 C 294.527 181.460,294.145 182.000,293.951 182.000 C 293.758 182.000,293.600 182.360,293.600 182.800 C 293.600 183.240,293.420 183.600,293.200 183.600 C 292.980 183.600,292.800 183.960,292.800 184.400 C 292.800 184.840,292.620 185.200,292.400 185.200 C 292.180 185.200,292.000 185.520,292.000 185.912 C 292.000 186.303,291.640 186.883,291.200 187.200 C 290.760 187.517,290.400 188.097,290.400 188.488 C 290.400 188.880,290.220 189.200,290.000 189.200 C 289.780 189.200,289.600 189.560,289.600 190.000 C 289.600 190.440,289.420 190.800,289.200 190.800 C 288.980 190.800,288.800 191.160,288.800 191.600 C 288.800 192.040,288.653 192.400,288.474 192.400 C 288.065 192.400,286.400 195.481,286.400 196.238 C 286.400 196.547,286.220 196.800,286.000 196.800 C 285.780 196.800,285.600 197.120,285.600 197.512 C 285.600 197.903,285.240 198.483,284.800 198.800 C 284.360 199.117,284.000 199.697,284.000 200.088 C 284.000 200.480,283.820 200.800,283.600 200.800 C 283.380 200.800,283.200 201.160,283.200 201.600 C 283.200 202.040,283.020 202.400,282.800 202.400 C 282.580 202.400,282.400 202.760,282.400 203.200 C 282.400 203.640,282.220 204.000,282.000 204.000 C 281.780 204.000,281.600 204.281,281.600 204.624 C 281.600 204.967,281.420 205.136,281.200 205.000 C 280.980 204.864,280.800 205.123,280.800 205.576 C 280.800 206.029,280.620 206.400,280.400 206.400 C 280.180 206.400,280.000 206.760,280.000 207.200 C 280.000 207.640,279.820 208.000,279.600 208.000 C 279.380 208.000,279.200 208.345,279.200 208.767 C 279.200 209.188,279.043 209.593,278.852 209.667 C 278.407 209.837,275.907 213.796,275.168 215.500 C 274.858 216.215,274.469 216.800,274.302 216.800 C 274.136 216.800,274.000 217.070,274.000 217.400 C 274.000 217.730,273.820 218.000,273.600 218.000 C 273.380 218.000,273.200 218.360,273.200 218.800 C 273.200 219.240,273.020 219.600,272.800 219.600 C 272.580 219.600,272.400 219.960,272.400 220.400 C 272.400 220.840,272.220 221.200,272.000 221.200 C 271.780 221.200,271.600 221.436,271.600 221.725 C 271.600 222.013,271.240 222.636,270.800 223.108 C 270.360 223.580,270.000 224.244,270.000 224.583 C 270.000 224.922,269.820 225.200,269.600 225.200 C 269.380 225.200,269.200 225.560,269.200 226.000 C 269.200 226.440,269.020 226.800,268.800 226.800 C 268.580 226.800,268.400 227.078,268.400 227.417 C 268.400 227.756,268.040 228.420,267.600 228.892 C 267.160 229.364,266.800 229.987,266.800 230.275 C 266.800 230.564,266.620 230.800,266.400 230.800 C 266.180 230.800,266.000 231.160,266.000 231.600 C 266.000 232.040,265.820 232.400,265.600 232.400 C 265.380 232.400,265.200 232.678,265.200 233.017 C 265.200 233.356,264.840 234.020,264.400 234.492 C 263.960 234.964,263.600 235.587,263.600 235.875 C 263.600 236.164,263.420 236.400,263.200 236.400 C 262.980 236.400,262.800 236.760,262.800 237.200 C 262.800 237.640,262.620 238.000,262.400 238.000 C 262.180 238.000,262.000 238.360,262.000 238.800 C 262.000 239.240,261.820 239.600,261.600 239.600 C 261.380 239.600,261.200 239.870,261.200 240.200 C 261.200 240.530,261.020 240.800,260.800 240.800 C 260.580 240.800,260.400 241.160,260.400 241.600 C 260.400 242.040,260.220 242.400,260.000 242.400 C 259.780 242.400,259.600 242.760,259.600 243.200 C 259.600 243.640,259.420 244.000,259.200 244.000 C 258.980 244.000,258.800 244.360,258.800 244.800 C 258.800 245.240,258.620 245.600,258.400 245.600 C 258.180 245.600,258.000 245.836,258.000 246.125 C 258.000 246.413,257.640 247.036,257.200 247.508 C 256.760 247.980,256.400 248.644,256.400 248.983 C 256.400 249.322,256.241 249.600,256.047 249.600 C 255.852 249.600,255.588 249.915,255.458 250.300 C 255.212 251.032,254.364 252.457,253.970 252.800 C 253.844 252.910,253.304 253.810,252.770 254.800 C 252.237 255.790,251.665 256.660,251.500 256.733 C 251.335 256.807,251.200 257.212,251.200 257.633 C 251.200 258.055,251.054 258.400,250.875 258.400 C 250.696 258.400,250.302 259.030,250.000 259.800 C 249.698 260.570,249.304 261.200,249.125 261.200 C 248.946 261.200,248.800 261.470,248.800 261.800 C 248.800 262.130,248.620 262.400,248.400 262.400 C 248.180 262.400,248.000 262.760,248.000 263.200 C 248.000 263.640,247.854 264.000,247.675 264.000 C 247.496 264.000,247.102 264.630,246.800 265.400 C 246.498 266.170,246.104 266.800,245.925 266.800 C 245.746 266.800,245.600 267.160,245.600 267.600 C 245.600 268.040,245.420 268.400,245.200 268.400 C 244.980 268.400,244.800 268.760,244.800 269.200 C 244.800 269.640,244.620 270.000,244.400 270.000 C 244.180 270.000,244.000 270.278,244.000 270.617 C 244.000 270.956,243.640 271.620,243.200 272.092 C 242.760 272.564,242.400 273.187,242.400 273.475 C 242.400 273.764,242.220 274.000,242.000 274.000 C 241.780 274.000,241.600 274.360,241.600 274.800 C 241.600 275.240,241.420 275.600,241.200 275.600 C 240.980 275.600,240.800 275.836,240.800 276.125 C 240.800 276.413,240.415 277.062,239.945 277.567 C 239.325 278.232,239.222 278.567,239.571 278.782 C 239.836 278.946,240.282 279.512,240.564 280.040 C 240.845 280.568,241.441 281.630,241.889 282.400 C 242.336 283.170,244.317 286.590,246.290 290.000 C 248.263 293.410,252.178 300.160,254.989 305.000 C 261.002 315.352,261.340 315.937,262.443 317.900 C 262.906 318.725,263.420 319.580,263.585 319.800 C 263.750 320.020,264.426 321.190,265.088 322.400 C 265.750 323.610,267.239 326.220,268.397 328.200 C 271.119 332.854,270.906 332.487,277.800 344.400 C 284.579 356.114,284.414 355.830,287.200 360.600 C 288.356 362.580,289.640 364.785,290.051 365.500 C 290.463 366.215,291.137 367.385,291.549 368.100 C 292.651 370.014,303.985 389.598,304.802 391.000 C 305.566 392.312,310.880 401.474,311.993 403.400 C 312.375 404.060,313.117 405.343,313.643 406.252 C 314.170 407.160,315.756 409.905,317.168 412.352 C 318.581 414.798,319.858 416.800,320.007 416.800 C 320.583 416.800,322.000 415.273,322.000 414.653 C 322.000 414.294,322.139 414.000,322.309 414.000 C 322.479 414.000,322.972 413.325,323.405 412.500 C 323.838 411.675,324.317 410.907,324.468 410.794 C 324.719 410.606,326.675 407.104,327.759 404.903 C 328.001 404.410,328.335 404.005,328.500 404.003 C 328.665 404.001,328.800 403.640,328.800 403.200 C 328.800 402.760,328.980 402.400,329.200 402.400 C 329.420 402.400,329.600 402.080,329.600 401.688 C 329.600 401.297,329.960 400.717,330.400 400.400 C 330.840 400.083,331.200 399.503,331.200 399.112 C 331.200 398.720,331.380 398.400,331.600 398.400 C 331.820 398.400,332.000 398.040,332.000 397.600 C 332.000 397.160,332.180 396.800,332.400 396.800 C 332.620 396.800,332.800 396.480,332.800 396.088 C 332.800 395.697,333.160 395.117,333.600 394.800 C 334.040 394.483,334.400 393.903,334.400 393.512 C 334.400 393.120,334.580 392.800,334.800 392.800 C 335.020 392.800,335.200 392.522,335.200 392.183 C 335.200 391.844,335.560 391.180,336.000 390.708 C 336.440 390.236,336.800 389.613,336.800 389.325 C 336.800 389.036,336.980 388.800,337.200 388.800 C 337.420 388.800,337.600 388.440,337.600 388.000 C 337.600 387.560,337.780 387.200,338.000 387.200 C 338.220 387.200,338.400 386.840,338.400 386.400 C 338.400 385.960,338.580 385.600,338.800 385.600 C 339.020 385.600,339.200 385.330,339.200 385.000 C 339.200 384.670,339.380 384.400,339.600 384.400 C 339.820 384.400,340.000 384.040,340.000 383.600 C 340.000 383.160,340.180 382.800,340.400 382.800 C 340.620 382.800,340.800 382.440,340.800 382.000 C 340.800 381.560,340.980 381.200,341.200 381.200 C 341.420 381.200,341.600 380.964,341.600 380.675 C 341.600 380.387,341.960 379.764,342.400 379.292 C 342.840 378.820,343.200 378.156,343.200 377.817 C 343.200 377.478,343.380 377.200,343.600 377.200 C 343.820 377.200,344.000 376.883,344.000 376.496 C 344.000 376.109,344.319 375.593,344.710 375.349 C 345.100 375.105,345.775 374.164,346.210 373.257 C 346.644 372.351,347.135 371.607,347.300 371.605 C 347.465 371.602,347.600 371.322,347.600 370.983 C 347.600 370.644,347.960 369.980,348.400 369.508 C 348.840 369.036,349.200 368.413,349.200 368.125 C 349.200 367.836,349.380 367.600,349.600 367.600 C 349.820 367.600,350.000 367.240,350.000 366.800 C 350.000 366.360,350.180 366.000,350.400 366.000 C 350.620 366.000,350.800 365.640,350.800 365.200 C 350.800 364.760,350.950 364.400,351.133 364.400 C 351.509 364.400,354.000 359.736,354.000 359.032 C 354.000 358.782,354.360 358.317,354.800 358.000 C 355.240 357.683,355.600 357.103,355.600 356.712 C 355.600 356.320,355.780 356.000,356.000 356.000 C 356.220 356.000,356.400 355.706,356.400 355.347 C 356.400 354.988,356.715 354.403,357.100 354.047 C 357.485 353.691,357.858 353.130,357.930 352.800 C 358.001 352.470,358.226 352.140,358.430 352.067 C 358.633 351.993,358.800 351.588,358.800 351.167 C 358.800 350.745,358.980 350.400,359.200 350.400 C 359.420 350.400,359.600 350.080,359.600 349.688 C 359.600 349.297,359.960 348.717,360.400 348.400 C 360.840 348.083,361.200 347.503,361.200 347.112 C 361.200 346.720,361.380 346.400,361.600 346.400 C 361.820 346.400,362.000 346.040,362.000 345.600 C 362.000 345.160,362.180 344.800,362.400 344.800 C 362.620 344.800,362.800 344.480,362.800 344.088 C 362.800 343.697,363.160 343.117,363.600 342.800 C 364.040 342.483,364.400 341.903,364.400 341.512 C 364.400 341.120,364.580 340.800,364.800 340.800 C 365.020 340.800,365.200 340.440,365.200 340.000 C 365.200 339.560,365.380 339.200,365.600 339.200 C 365.820 339.200,366.000 338.992,366.000 338.738 C 366.000 338.484,366.450 337.686,367.000 336.964 C 367.550 336.243,368.000 335.461,368.000 335.227 C 368.000 334.992,368.180 334.800,368.400 334.800 C 368.620 334.800,368.800 334.522,368.800 334.183 C 368.800 333.844,369.160 333.180,369.600 332.708 C 370.040 332.236,370.400 331.613,370.400 331.325 C 370.400 331.036,370.580 330.800,370.800 330.800 C 371.020 330.800,371.200 330.440,371.200 330.000 C 371.200 329.560,371.380 329.200,371.600 329.200 C 371.820 329.200,372.000 328.964,372.000 328.675 C 372.000 328.387,372.360 327.764,372.800 327.292 C 373.240 326.820,373.600 326.156,373.600 325.817 C 373.600 325.478,373.780 325.200,374.000 325.200 C 374.220 325.200,374.400 324.922,374.400 324.583 C 374.400 324.244,374.760 323.580,375.200 323.108 C 375.640 322.636,376.000 322.013,376.000 321.725 C 376.000 321.436,376.180 321.200,376.400 321.200 C 376.620 321.200,376.800 320.840,376.800 320.400 C 376.800 319.960,376.980 319.600,377.200 319.600 C 377.420 319.600,377.600 319.240,377.600 318.800 C 377.600 318.360,377.754 318.000,377.942 318.000 C 378.130 318.000,379.056 316.470,380.000 314.600 C 380.944 312.730,381.870 311.200,382.058 311.200 C 382.246 311.200,382.400 310.840,382.400 310.400 C 382.400 309.960,382.580 309.600,382.800 309.600 C 383.020 309.600,383.200 309.322,383.200 308.983 C 383.200 308.644,383.560 307.980,384.000 307.508 C 384.440 307.036,384.800 306.413,384.800 306.125 C 384.800 305.836,384.980 305.600,385.200 305.600 C 385.420 305.600,385.600 305.240,385.600 304.800 C 385.600 304.360,385.780 304.000,386.000 304.000 C 386.220 304.000,386.400 303.680,386.400 303.288 C 386.400 302.897,386.760 302.317,387.200 302.000 C 387.640 301.683,388.000 301.103,388.000 300.712 C 388.000 300.320,388.180 300.000,388.400 300.000 C 388.620 300.000,388.800 299.659,388.800 299.243 C 388.800 298.826,389.070 298.382,389.400 298.255 C 389.730 298.129,390.000 297.749,390.000 297.413 C 390.000 297.076,390.137 296.800,390.304 296.800 C 390.472 296.800,391.237 295.585,392.004 294.100 C 392.772 292.615,393.535 291.340,393.700 291.267 C 393.865 291.193,394.000 290.878,394.000 290.567 C 394.000 290.255,394.180 290.000,394.400 290.000 C 394.620 290.000,394.800 289.640,394.800 289.200 C 394.800 288.760,394.980 288.400,395.200 288.400 C 395.420 288.400,395.600 288.040,395.600 287.600 C 395.600 287.160,395.780 286.800,396.000 286.800 C 396.220 286.800,396.400 286.530,396.400 286.200 C 396.400 285.870,396.580 285.600,396.800 285.600 C 397.020 285.600,397.200 285.330,397.200 285.000 C 397.200 284.670,397.380 284.400,397.600 284.400 C 397.820 284.400,398.000 284.040,398.000 283.600 C 398.000 283.160,398.180 282.800,398.400 282.800 C 398.620 282.800,398.800 282.517,398.800 282.171 C 398.800 281.826,399.092 281.251,399.449 280.894 C 400.301 280.042,400.014 275.556,399.044 274.587 C 398.686 274.229,398.475 273.803,398.575 273.641 C 398.675 273.478,398.407 273.093,397.979 272.785 C 397.550 272.476,397.200 271.903,397.200 271.512 C 397.200 271.120,397.020 270.800,396.800 270.800 C 396.580 270.800,396.400 270.440,396.400 270.000 C 396.400 269.560,396.220 269.200,396.000 269.200 C 395.780 269.200,395.600 268.930,395.600 268.600 C 395.600 268.270,395.420 268.000,395.200 268.000 C 394.980 268.000,394.800 267.730,394.800 267.400 C 394.800 267.070,394.620 266.800,394.400 266.800 C 394.180 266.800,394.000 266.535,394.000 266.212 C 394.000 265.670,392.735 263.132,391.999 262.200 C 391.826 261.980,391.186 260.900,390.578 259.800 C 389.971 258.700,389.142 257.509,388.737 257.153 C 388.331 256.797,388.000 256.212,388.000 255.853 C 388.000 255.494,387.820 255.200,387.600 255.200 C 387.380 255.200,387.200 254.840,387.200 254.400 C 387.200 253.960,387.020 253.600,386.800 253.600 C 386.580 253.600,386.400 253.322,386.400 252.983 C 386.400 252.644,386.040 251.980,385.600 251.508 C 385.160 251.036,384.800 250.413,384.800 250.125 C 384.800 249.836,384.620 249.600,384.400 249.600 C 384.180 249.600,384.000 249.240,384.000 248.800 C 384.000 248.360,383.820 248.000,383.600 248.000 C 383.380 248.000,383.200 247.680,383.200 247.288 C 383.200 246.897,382.840 246.317,382.400 246.000 C 381.960 245.683,381.600 245.103,381.600 244.712 C 381.600 244.320,381.420 244.000,381.200 244.000 C 380.980 244.000,380.800 243.640,380.800 243.200 C 380.800 242.760,380.620 242.400,380.400 242.400 C 380.180 242.400,380.000 242.122,380.000 241.783 C 380.000 241.444,379.640 240.780,379.200 240.308 C 378.760 239.836,378.400 239.123,378.400 238.725 C 378.400 238.326,378.220 238.000,378.000 238.000 C 377.780 238.000,377.600 237.722,377.600 237.383 C 377.600 237.044,377.240 236.380,376.800 235.908 C 376.360 235.436,376.000 234.813,376.000 234.525 C 376.000 234.236,375.820 234.000,375.600 234.000 C 375.380 234.000,375.200 233.640,375.200 233.200 C 375.200 232.760,375.020 232.400,374.800 232.400 C 374.580 232.400,374.400 232.080,374.400 231.688 C 374.400 231.297,374.040 230.717,373.600 230.400 C 373.160 230.083,372.800 229.503,372.800 229.112 C 372.800 228.720,372.620 228.400,372.400 228.400 C 372.180 228.400,372.000 228.040,372.000 227.600 C 372.000 227.160,371.820 226.800,371.600 226.800 C 371.380 226.800,371.200 226.564,371.200 226.275 C 371.200 225.987,370.840 225.364,370.400 224.892 C 369.960 224.420,369.600 223.756,369.600 223.417 C 369.600 223.078,369.465 222.798,369.300 222.795 C 369.135 222.793,368.659 222.079,368.242 221.209 C 367.825 220.339,367.150 219.268,366.742 218.830 C 366.334 218.392,366.000 217.756,366.000 217.417 C 366.000 217.078,365.820 216.800,365.600 216.800 C 365.380 216.800,365.200 216.440,365.200 216.000 C 365.200 215.560,365.042 215.200,364.849 215.200 C 364.655 215.200,364.273 214.660,364.000 214.000 C 363.727 213.340,363.345 212.800,363.151 212.800 C 362.958 212.800,362.800 212.455,362.800 212.033 C 362.800 211.612,362.665 211.207,362.500 211.133 C 362.335 211.060,361.767 210.145,361.237 209.100 C 360.708 208.055,360.123 207.200,359.937 207.200 C 359.752 207.200,359.600 206.840,359.600 206.400 C 359.600 205.960,359.420 205.600,359.200 205.600 C 358.980 205.600,358.800 205.322,358.800 204.983 C 358.800 204.644,358.440 203.980,358.000 203.508 C 357.560 203.036,357.200 202.413,357.200 202.125 C 357.200 201.836,357.020 201.600,356.800 201.600 C 356.580 201.600,356.400 201.240,356.400 200.800 C 356.400 200.360,356.220 200.000,356.000 200.000 C 355.780 200.000,355.600 199.680,355.600 199.288 C 355.600 198.897,355.240 198.317,354.800 198.000 C 354.360 197.683,354.000 197.210,354.000 196.949 C 354.000 196.349,352.300 193.045,351.900 192.867 C 351.735 192.793,351.600 192.478,351.600 192.167 C 351.600 191.855,351.420 191.600,351.200 191.600 C 350.980 191.600,350.800 191.255,350.800 190.833 C 350.800 190.412,350.665 190.007,350.500 189.933 C 350.124 189.766,348.825 187.636,348.529 186.700 C 348.407 186.315,348.148 186.000,347.953 186.000 C 347.759 186.000,347.600 185.640,347.600 185.200 C 347.600 184.760,347.465 184.398,347.300 184.395 C 347.135 184.393,346.644 183.649,346.210 182.743 C 345.775 181.836,345.100 180.895,344.710 180.651 C 344.319 180.407,344.000 179.891,344.000 179.504 C 344.000 179.117,343.820 178.800,343.600 178.800 C 343.380 178.800,343.200 178.522,343.200 178.183 C 343.200 177.844,342.840 177.180,342.400 176.708 C 341.960 176.236,341.600 175.613,341.600 175.325 C 341.600 175.036,341.420 174.800,341.200 174.800 C 340.980 174.800,340.800 174.440,340.800 174.000 C 340.800 173.560,340.620 173.200,340.400 173.200 C 340.180 173.200,340.000 172.840,340.000 172.400 C 340.000 171.960,339.820 171.600,339.600 171.600 C 339.380 171.600,339.200 171.330,339.200 171.000 C 339.200 170.670,339.020 170.400,338.800 170.400 C 338.580 170.400,338.400 170.040,338.400 169.600 C 338.400 169.160,338.220 168.800,338.000 168.800 C 337.780 168.800,337.600 168.440,337.600 168.000 C 337.600 167.560,337.420 167.200,337.200 167.200 C 336.980 167.200,336.800 166.964,336.800 166.675 C 336.800 166.387,336.440 165.764,336.000 165.292 C 335.560 164.820,335.200 164.156,335.200 163.817 C 335.200 163.478,335.020 163.200,334.800 163.200 C 334.580 163.200,334.400 162.840,334.400 162.400 C 334.400 161.960,334.220 161.600,334.000 161.600 C 333.780 161.600,333.600 161.364,333.600 161.075 C 333.600 160.787,333.240 160.164,332.800 159.692 C 332.360 159.220,332.000 158.556,332.000 158.217 C 332.000 157.878,331.820 157.600,331.600 157.600 C 331.380 157.600,331.200 157.280,331.200 156.888 C 331.200 156.497,330.840 155.917,330.400 155.600 C 329.960 155.283,329.600 154.703,329.600 154.312 C 329.600 153.920,329.420 153.600,329.200 153.600 C 328.980 153.600,328.800 153.240,328.800 152.800 C 328.800 152.360,328.620 152.000,328.400 152.000 C 328.180 152.000,328.000 151.640,328.000 151.200 C 328.000 150.760,327.848 150.400,327.663 150.400 C 327.477 150.400,326.901 149.545,326.381 148.500 C 325.243 146.211,322.736 142.252,322.308 142.067 C 322.139 141.993,322.000 141.588,322.000 141.167 C 322.000 140.745,321.820 140.400,321.600 140.400 C 321.380 140.400,321.200 140.040,321.200 139.600 C 321.200 138.694,320.249 138.574,319.017 139.324 " stroke="none" fill="#5c646c" fill-rule="evenodd"></path></g></svg>